<svg xmlns="http://www.w3.org/2000/svg" viewBox="0 0 512 512" role="img" aria-labelledby="title desc">
  <title>Aristotle head mark</title>
  <desc>A small monochrome line icon of a bearded classical philosopher.</desc>
  <g fill="none" stroke="#111111" stroke-linecap="round" stroke-linejoin="round">
    <circle cx="256" cy="156" r="160" stroke-width="20" />
    <path
      d="M168 282l16-128c18-32 32-54 48-82 24 17 60 29 124 29s100-12 124-29c16 28 30 50 48 82l16 128"
      stroke-width="20"
    />
    <path
      d="M170 284c20 33 52 60 89 79l34-25c11-8 19-17 31-17 12 0 20 9 31 17l34 25c37-19 69-46 89-79"
      stroke-width="20"
    />
    <path
      d="M168 284v98c0 68 39 118 88 118h0c49 0 88-50 88-118v-98"
      stroke-width="20"
    />
    <path d="M181 208c14-12 31-18 48-18 18 0 35 6 49 18" stroke-width="22" />
    <path d="M282 208c14-12 31-18 48-18 18 0 35 6 49 18" stroke-width="22" />
    <path d="M230 364h52" stroke-width="20" />
  </g>
  <circle cx="206" cy="236" r="18" fill="#111111" />
  <circle cx="306" cy="236" r="18" fill="#111111" />
</svg>
